<svg width="16" height="17" viewBox="0 0 16 17" fill="none" xmlns="http://www.w3.org/2000/svg">
<path d="M1.3335 5.16675C1.05735 5.16675 0.833496 5.39061 0.833496 5.66675C0.833496 5.94289 1.05735 6.16675 1.3335 6.16675V5.16675ZM14.6668 6.16675C14.943 6.16675 15.1668 5.94289 15.1668 5.66675C15.1668 5.39061 14.943 5.16675 14.6668 5.16675V6.16675ZM2.24333 15.4851L2.47032 15.0396L2.24333 15.4851ZM1.51515 14.7568L1.06965 14.9838H1.06965L1.51515 14.7568ZM14.4854 14.7568L14.0398 14.5298L14.4854 14.7568ZM13.7566 15.4851L13.5297 15.0396L13.7566 15.4851ZM13.7566 2.51507L13.9836 2.06957L13.7566 2.51507ZM14.4854 3.24345L14.0398 3.47044V3.47044L14.4854 3.24345ZM2.24333 2.51507L2.47032 2.96057L2.24333 2.51507ZM1.51515 3.24345L1.96066 3.47044L1.51515 3.24345ZM11.8335 0.666748C11.8335 0.390606 11.6096 0.166748 11.3335 0.166748C11.0574 0.166748 10.8335 0.390606 10.8335 0.666748H11.8335ZM10.8335 2.33341C10.8335 2.60956 11.0574 2.83341 11.3335 2.83341C11.6096 2.83341 11.8335 2.60956 11.8335 2.33341H10.8335ZM5.16683 0.666748C5.16683 0.390606 4.94297 0.166748 4.66683 0.166748C4.39069 0.166748 4.16683 0.390606 4.16683 0.666748H5.16683ZM4.16683 2.33341C4.16683 2.60956 4.39069 2.83341 4.66683 2.83341C4.94297 2.83341 5.16683 2.60956 5.16683 2.33341H4.16683ZM1.3335 6.16675H14.6668V5.16675H1.3335V6.16675ZM4.00033 2.83341H12.0003V1.83341H4.00033V2.83341ZM14.1668 5.00004V13H15.1668V5.00004H14.1668ZM12.0003 15.1667H4.00033V16.1667H12.0003V15.1667ZM1.8335 13V5.00004H0.833496V13H1.8335ZM4.00033 15.1667C3.52538 15.1667 3.19913 15.1664 2.9462 15.1457C2.69908 15.1255 2.56633 15.0885 2.47032 15.0396L2.01633 15.9306C2.27685 16.0633 2.55588 16.1171 2.86477 16.1424C3.16786 16.1671 3.54185 16.1667 4.00033 16.1667V15.1667ZM0.833496 13C0.833496 13.4585 0.833107 13.8324 0.857863 14.1355C0.883096 14.4443 0.936917 14.7233 1.06965 14.9838L1.96066 14.5298C1.91173 14.4338 1.87472 14.3011 1.85454 14.054C1.83388 13.8012 1.8335 13.475 1.8335 13H0.833496ZM2.47032 15.0396C2.25088 14.9277 2.07255 14.7494 1.96066 14.5298L1.06965 14.9838C1.27734 15.3914 1.60857 15.7228 2.01633 15.9306L2.47032 15.0396ZM14.1668 13C14.1668 13.4751 14.1665 13.8012 14.1459 14.0541C14.1257 14.3012 14.0887 14.4338 14.0398 14.5298L14.9309 14.9838C15.0636 14.7232 15.1174 14.4442 15.1426 14.1354C15.1673 13.8324 15.1668 13.4585 15.1668 13H14.1668ZM12.0003 16.1667C12.4588 16.1667 12.8326 16.1671 13.1356 16.1424C13.4444 16.1171 13.7232 16.0633 13.9836 15.9306L13.5297 15.0396C13.4336 15.0885 13.301 15.1255 13.0541 15.1457C12.8013 15.1664 12.4753 15.1667 12.0003 15.1667V16.1667ZM14.0398 14.5298C13.9281 14.749 13.7494 14.9276 13.5297 15.0396L13.9836 15.9306C14.3911 15.723 14.723 15.3917 14.9309 14.9838L14.0398 14.5298ZM12.0003 2.83341C12.4753 2.83341 12.8014 2.8338 13.0541 2.85446C13.301 2.87464 13.4336 2.91163 13.5297 2.96057L13.9836 2.06957C13.7232 1.93685 13.4444 1.88302 13.1356 1.85778C12.8326 1.83303 12.4588 1.83341 12.0003 1.83341V2.83341ZM15.1668 5.00004C15.1668 4.54163 15.1673 4.16773 15.1426 3.86477C15.1174 3.55596 15.0636 3.277 14.9309 3.01645L14.0398 3.47044C14.0887 3.56642 14.1257 3.69904 14.1459 3.94605C14.1665 4.1989 14.1668 4.52503 14.1668 5.00004H15.1668ZM13.5297 2.96057C13.7494 3.07253 13.9281 3.25113 14.0398 3.47044L14.9309 3.01645C14.723 2.60856 14.3911 2.27719 13.9836 2.06957L13.5297 2.96057ZM4.00033 1.83341C3.54186 1.83341 3.16787 1.83303 2.86478 1.85778C2.5559 1.88301 2.27685 1.93682 2.01633 2.06957L2.47032 2.96057C2.56632 2.91166 2.69906 2.87465 2.94619 2.85446C3.19912 2.8338 3.52537 2.83341 4.00033 2.83341V1.83341ZM1.8335 5.00004C1.8335 4.52508 1.83389 4.19895 1.85454 3.94612C1.87472 3.69915 1.91172 3.56647 1.96066 3.47044L1.06965 3.01645C0.936923 3.27694 0.883098 3.55586 0.857864 3.86469C0.833107 4.16768 0.833496 4.54158 0.833496 5.00004H1.8335ZM2.01633 2.06957C1.60852 2.27736 1.27731 2.6089 1.06965 3.01645L1.96066 3.47044C2.07257 3.25079 2.25093 3.07236 2.47032 2.96057L2.01633 2.06957ZM7.79183 12.8334C8.18303 12.8334 8.50016 12.5163 8.50016 12.1251H7.50016C7.50016 11.964 7.63075 11.8334 7.79183 11.8334V12.8334ZM8.50016 12.1251V9.20841H7.50016V12.1251H8.50016ZM8.50016 9.20841C8.50016 8.81721 8.18303 8.50008 7.79183 8.50008V9.50008C7.63075 9.50008 7.50016 9.3695 7.50016 9.20841H8.50016ZM7.79183 8.50008H4.87516V9.50008H7.79183V8.50008ZM4.87516 8.50008C4.48396 8.50008 4.16683 8.81721 4.16683 9.20841H5.16683C5.16683 9.3695 5.03625 9.50008 4.87516 9.50008V8.50008ZM4.16683 9.20841V12.1251H5.16683V9.20841H4.16683ZM4.16683 12.1251C4.16683 12.5163 4.48396 12.8334 4.87516 12.8334V11.8334C5.03625 11.8334 5.16683 11.964 5.16683 12.1251H4.16683ZM4.87516 12.8334H7.79183V11.8334H4.87516V12.8334ZM10.8335 0.666748V2.33341H11.8335V0.666748H10.8335ZM4.16683 0.666748V2.33341H5.16683V0.666748H4.16683Z" fill="#0B0B0B"/>
</svg>
