<svg width="18" height="16" viewBox="0 0 18 16" fill="none" xmlns="http://www.w3.org/2000/svg">
<path d="M0.666504 14.6667H17.3332M4.83317 6.33333H8.1665M10.6665 14.6667H15.6665V8C15.6665 7.22343 15.6664 6.83513 15.5396 6.52885C15.3704 6.12047 15.046 5.79602 14.6376 5.62687C14.3314 5.5 13.9433 5.5 13.1667 5.5C12.3901 5.5 12.0018 5.5 11.6956 5.62687C11.2872 5.79602 10.9625 6.12047 10.7934 6.52885C10.6665 6.83513 10.6665 7.22343 10.6665 8V14.6667ZM10.6665 14.6667V3.16663C10.6665 2.23321 10.6667 1.76655 10.485 1.41003C10.3252 1.09643 10.0699 0.841445 9.75632 0.681656C9.39981 0.5 8.93342 0.5 8 0.5H5C4.06658 0.5 3.59952 0.5 3.243 0.681656C2.9294 0.841445 2.67462 1.09643 2.51483 1.41003C2.33317 1.76655 2.33317 2.23321 2.33317 3.16663V14.6667H10.6665ZM4.83317 3.83333L8.1665 3.83333" stroke="#0B0B0B" stroke-linecap="round" stroke-linejoin="round"/>
</svg>
