<svg width="16" height="16" viewBox="0 0 16 16" fill="none" xmlns="http://www.w3.org/2000/svg">
<path d="M11.3333 4.66683C11.3333 2.82588 9.84095 1.3335 8 1.3335C6.15905 1.3335 4.66667 2.82588 4.66667 4.66683M15.5 7.33346V12.0001C15.5 12.9335 15.5002 13.4003 15.3185 13.7569C15.1587 14.0705 14.9034 14.3254 14.5898 14.4851C14.2333 14.6668 13.7669 14.6668 12.8335 14.6668H3.16683C2.23341 14.6668 1.76635 14.6668 1.40983 14.4851C1.09623 14.3254 0.841445 14.0705 0.681656 13.7569C0.5 13.4003 0.5 12.9335 0.5 12.0001V7.33346C0.5 6.40003 0.5 5.93338 0.681656 5.57686C0.841445 5.26326 1.09623 5.00827 1.40983 4.84849C1.76635 4.66683 2.23341 4.66683 3.16683 4.66683H12.8335C13.7669 4.66683 14.2333 4.66683 14.5898 4.84849C14.9034 5.00827 15.1587 5.26326 15.3185 5.57686C15.5002 5.93338 15.5 6.40003 15.5 7.33346Z" stroke="#0B0B0B" stroke-linecap="round" stroke-linejoin="round"/>
</svg>
